<svg width="24" height="24" viewBox="0 0 24 24" fill="none" xmlns="http://www.w3.org/2000/svg">
<path d="M23 20.827V12.3241C23.0001 11.7326 22.8779 11.1472 22.6409 10.6039C22.4039 10.0607 22.0571 9.57089 21.6217 9.16463L13.5114 1.59397C13.1029 1.21253 12.5621 1 12 1C11.4379 1 10.8971 1.21253 10.4886 1.59397L2.3783 9.16463C1.94295 9.57089 1.59615 10.0607 1.35915 10.6039C1.12215 11.1472 0.999936 11.7326 1 12.3241V20.827C1 21.4033 1.23178 21.956 1.64437 22.3635C2.05694 22.7711 2.61652 23 3.2 23H20.8C21.3835 23 21.9431 22.7711 22.3556 22.3635C22.7682 21.956 23 21.4033 23 20.827Z" fill="white" stroke="white" stroke-width="2" stroke-linecap="round" stroke-linejoin="round"/>
</svg>
