<svg width="25" height="25" viewBox="0 0 25 25" fill="none" xmlns="http://www.w3.org/2000/svg">
<path fill-rule="evenodd" clip-rule="evenodd" d="M13.5418 4.16669C13.797 4.16672 14.0432 4.26039 14.2339 4.42993C14.4245 4.59947 14.5464 4.83309 14.5762 5.08648L14.5835 5.20835C14.5838 5.47385 14.6855 5.72922 14.8677 5.92228C15.05 6.11534 15.2991 6.23151 15.5641 6.24707C15.8292 6.26263 16.0901 6.1764 16.2937 6.00599C16.4973 5.83559 16.6282 5.59387 16.6595 5.33023L16.6668 5.20835C16.6668 4.93209 16.7766 4.66713 16.9719 4.47178C17.1673 4.27643 17.4322 4.16669 17.7085 4.16669H19.7918C20.6206 4.16669 21.4155 4.49593 22.0015 5.08198C22.5876 5.66803 22.9168 6.46289 22.9168 7.29169V17.7084C22.9168 18.5372 22.5876 19.332 22.0015 19.9181C21.4155 20.5041 20.6206 20.8334 19.7918 20.8334H17.7085C17.4534 20.8333 17.2071 20.7396 17.0164 20.5701C16.8258 20.4006 16.704 20.1669 16.6741 19.9136L16.6668 19.7917C16.6665 19.5262 16.5649 19.2708 16.3826 19.0778C16.2004 18.8847 15.9513 18.7685 15.6862 18.753C15.4212 18.7374 15.1602 18.8236 14.9566 18.994C14.753 19.1645 14.6221 19.4062 14.5908 19.6698L14.5835 19.7917C14.5835 20.068 14.4738 20.3329 14.2784 20.5283C14.083 20.7236 13.8181 20.8334 13.5418 20.8334H5.2085C4.37969 20.8334 3.58484 20.5041 2.99879 19.9181C2.41274 19.332 2.0835 18.5372 2.0835 17.7084V7.29169C2.0835 6.46289 2.41274 5.66803 2.99879 5.08198C3.58484 4.49593 4.37969 4.16669 5.2085 4.16669H13.5418ZM15.6252 13.5417C15.3489 13.5417 15.0839 13.6514 14.8886 13.8468C14.6932 14.0421 14.5835 14.3071 14.5835 14.5834V15.625C14.5835 15.9013 14.6932 16.1662 14.8886 16.3616C15.0839 16.5569 15.3489 16.6667 15.6252 16.6667C15.9014 16.6667 16.1664 16.5569 16.3617 16.3616C16.5571 16.1662 16.6668 15.9013 16.6668 15.625V14.5834C16.6668 14.3071 16.5571 14.0421 16.3617 13.8468C16.1664 13.6514 15.9014 13.5417 15.6252 13.5417ZM15.6252 8.33335C15.37 8.33339 15.1238 8.42706 14.9331 8.5966C14.7424 8.76614 14.6206 8.99976 14.5908 9.25315L14.5835 9.37502V10.4167C14.5838 10.6822 14.6855 10.9376 14.8677 11.1306C15.05 11.3237 15.2991 11.4398 15.5641 11.4554C15.8292 11.471 16.0901 11.3847 16.2937 11.2143C16.4973 11.0439 16.6282 10.8022 16.6595 10.5386L16.6668 10.4167V9.37502C16.6668 9.09875 16.5571 8.8338 16.3617 8.63845C16.1664 8.4431 15.9014 8.33335 15.6252 8.33335Z" fill="white" fill-opacity="0.66"/>
</svg>
