<svg width="23" height="23" viewBox="0 0 23 23" fill="none" xmlns="http://www.w3.org/2000/svg">
<g clip-path="url(#clip0_324_124)">
<path d="M11.5 0C12.5557 0 13.5739 0.134766 14.5547 0.404297C15.5355 0.673828 16.4526 1.05941 17.3062 1.56104C18.1597 2.06266 18.9346 2.66162 19.6309 3.35791C20.3271 4.0542 20.9261 4.83285 21.4277 5.69385C21.9294 6.55485 22.3149 7.47201 22.5845 8.44531C22.854 9.41862 22.9925 10.4368 23 11.5C23 12.5557 22.8652 13.5739 22.5957 14.5547C22.3262 15.5355 21.9406 16.4526 21.439 17.3062C20.9373 18.1597 20.3384 18.9346 19.6421 19.6309C18.9458 20.3271 18.1672 20.9261 17.3062 21.4277C16.4452 21.9294 15.528 22.3149 14.5547 22.5845C13.5814 22.854 12.5632 22.9925 11.5 23C10.4443 23 9.42611 22.8652 8.44531 22.5957C7.46452 22.3262 6.54736 21.9406 5.69385 21.439C4.84033 20.9373 4.06543 20.3384 3.36914 19.6421C2.67285 18.9458 2.07389 18.1672 1.57227 17.3062C1.07064 16.4452 0.685059 15.5317 0.415527 14.5659C0.145996 13.6001 0.00748698 12.5781 0 11.5C0 10.4443 0.134766 9.42611 0.404297 8.44531C0.673828 7.46452 1.05941 6.54736 1.56104 5.69385C2.06266 4.84033 2.66162 4.06543 3.35791 3.36914C4.0542 2.67285 4.83285 2.07389 5.69385 1.57227C6.55485 1.07064 7.46826 0.685059 8.43408 0.415527C9.3999 0.145996 10.4219 0.00748698 11.5 0ZM11.5 21.5625C12.4209 21.5625 13.3081 21.4427 14.1616 21.2031C15.0151 20.9635 15.8162 20.6266 16.5649 20.1924C17.3136 19.7581 17.995 19.2303 18.6089 18.6089C19.2228 17.9875 19.7469 17.3099 20.1812 16.5762C20.6154 15.8424 20.9561 15.0413 21.2031 14.1729C21.4502 13.3044 21.57 12.4134 21.5625 11.5C21.5625 10.5791 21.4427 9.69189 21.2031 8.83838C20.9635 7.98486 20.6266 7.18376 20.1924 6.43506C19.7581 5.68636 19.2303 5.00505 18.6089 4.39111C17.9875 3.77718 17.3099 3.25309 16.5762 2.81885C15.8424 2.3846 15.0413 2.04395 14.1729 1.79688C13.3044 1.5498 12.4134 1.43001 11.5 1.4375C10.5791 1.4375 9.69189 1.55729 8.83838 1.79688C7.98486 2.03646 7.18376 2.37337 6.43506 2.80762C5.68636 3.24186 5.00505 3.76969 4.39111 4.39111C3.77718 5.01253 3.25309 5.6901 2.81885 6.42383C2.3846 7.15755 2.04395 7.95866 1.79688 8.82715C1.5498 9.69564 1.43001 10.5866 1.4375 11.5C1.4375 12.4209 1.55729 13.3081 1.79688 14.1616C2.03646 15.0151 2.37337 15.8162 2.80762 16.5649C3.24186 17.3136 3.76969 17.995 4.39111 18.6089C5.01253 19.2228 5.6901 19.7469 6.42383 20.1812C7.15755 20.6154 7.95866 20.9561 8.82715 21.2031C9.69564 21.4502 10.5866 21.57 11.5 21.5625ZM18.2046 11.6797L18.7437 10.0625H19.5859L18.6313 12.9375H17.7891L17.25 11.3203L16.7109 12.9375H15.8687L14.9141 10.0625H15.7563L16.2954 11.6797L16.8345 10.0625H17.6655L18.2046 11.6797ZM12.9937 10.0625H13.8359L12.8813 12.9375H12.0391L11.5 11.3203L10.9609 12.9375H10.1187L9.16406 10.0625H10.0063L10.5454 11.6797L11.0845 10.0625H11.9155L12.4546 11.6797L12.9937 10.0625ZM7.24365 10.0625H8.08594L7.13135 12.9375H6.28906L5.75 11.3203L5.21094 12.9375H4.36865L3.41406 10.0625H4.25635L4.79541 11.6797L5.33447 10.0625H6.16553L6.70459 11.6797L7.24365 10.0625Z" fill="url(#paint0_linear_324_124)"/>
</g>
<defs>
<linearGradient id="paint0_linear_324_124" x1="11.5" y1="0" x2="11.5" y2="23" gradientUnits="userSpaceOnUse">
<stop stop-color="#FFE600"/>
<stop offset="1" stop-color="#DB2519"/>
</linearGradient>
<clipPath id="clip0_324_124">
<rect width="23" height="23" fill="white"/>
</clipPath>
</defs>
</svg>
